MerriweatherSans-Bold.ufo
<glyph name="exclam" format="1">
  <advance width="641"/>
  <unicode hex="0021"/>
  <outline>
    <contour>
      <point x="197" y="555" type="line"/>
      <point x="464" y="555" type="line"/>
      <point x="498" y="1780" type="line"/>
      <point x="151" y="1780" type="line"/>
    </contour>
    <contour>
      <point x="312" y="-22" type="curve" smooth="yes"/>
      <point x="426" y="-22"/>
      <point x="516" y="76"/>
      <point x="515" y="191" type="curve" smooth="yes"/>
      <point x="514" y="299"/>
      <point x="446" y="383"/>
      <point x="329" y="383" type="curve" smooth="yes"/>
      <point x="218" y="383"/>
      <point x="124" y="284"/>
      <point x="126" y="171" type="curve" smooth="yes"/>
      <point x="127" y="61"/>
      <point x="205" y="-22"/>
    </contour>
  </outline>
</glyph>
<glyph name="slash" format="1">
  <advance width="864"/>
  <unicode hex="002F"/>
  <outline>
    <contour>
      <point x="24" y="-363" type="line"/>
      <point x="279" y="-363" type="line"/>
      <point x="840" y="1599" type="line"/>
      <point x="585" y="1599" type="line"/>
    </contour>
  </outline>
</glyph>
<glyph name="one" format="1">
  <advance width="1004"/>
  <unicode hex="0031"/>
  <outline>
    <contour>
      <point x="391" y="0" type="line"/>
      <point x="712" y="0" type="line"/>
      <point x="714" y="1253" type="line"/>
      <point x="560" y="1278" type="line"/>
      <point x="483" y="1215"/>
      <point x="261" y="1102"/>
      <point x="127" y="1067" type="curve"/>
      <point x="153" y="882" type="line"/>
      <point x="232" y="896"/>
      <point x="312" y="910"/>
      <point x="391" y="929" type="curve"/>
    </contour>
  </outline>
</glyph>
<glyph name="three" format="1">
  <advance width="1170"/>
  <unicode hex="0033"/>
  <outline>
    <contour>
      <point x="123" y="-289" type="line"/>
      <point x="161" y="-301"/>
      <point x="249" y="-335"/>
      <point x="404" y="-335" type="curve" smooth="yes"/>
      <point x="812" y="-335"/>
      <point x="1084" y="-116"/>
      <point x="1084" y="170" type="curve" smooth="yes"/>
      <point x="1084" y="336"/>
      <point x="969" y="539"/>
      <point x="673" y="533" type="curve"/>
      <point x="673" y="506" type="line"/>
      <point x="849" y="568"/>
      <point x="1004" y="704"/>
      <point x="1004" y="917" type="curve" smooth="yes"/>
      <point x="1004" y="1135"/>
      <point x="843" y="1281"/>
      <point x="519" y="1281" type="curve" smooth="yes"/>
      <point x="327" y="1281"/>
      <point x="135" y="1191"/>
      <point x="77" y="1129" type="curve"/>
      <point x="170" y="934" type="line"/>
      <point x="234" y="978"/>
      <point x="325" y="1035"/>
      <point x="476" y="1035" type="curve" smooth="yes"/>
      <point x="594" y="1035"/>
      <point x="685" y="990"/>
      <point x="683" y="875" type="curve" smooth="yes"/>
      <point x="681" y="783"/>
      <point x="629" y="710"/>
      <point x="529" y="654" type="curve" smooth="yes"/>
      <point x="469" y="623"/>
      <point x="374" y="593"/>
      <point x="285" y="574" type="curve"/>
      <point x="327" y="376" type="line"/>
      <point x="466" y="412" type="line"/>
      <point x="677" y="420"/>
      <point x="752" y="305"/>
      <point x="752" y="167" type="curve" smooth="yes"/>
      <point x="752" y="-15"/>
      <point x="561" y="-108"/>
      <point x="310" y="-108" type="curve" smooth="yes"/>
      <point x="250" y="-108"/>
      <point x="187" y="-99"/>
      <point x="122" y="-85" type="curve"/>
    </contour>
  </outline>
</glyph>
<glyph name="less" format="1">
  <advance width="1378"/>
  <unicode hex="003C"/>
  <outline>
    <contour>
      <point x="197" y="698" type="line"/>
      <point x="1149" y="229" type="line"/>
      <point x="1149" y="511" type="line"/>
      <point x="517" y="789" type="line"/>
      <point x="517" y="757" type="line"/>
      <point x="1149" y="1057" type="line"/>
      <point x="1149" y="1331" type="line"/>
      <point x="197" y="852" type="line"/>
    </contour>
  </outline>
</glyph>
<glyph name="C" format="1">
  <advance width="1299"/>
  <unicode hex="0043"/>
  <outline>
    <contour>
      <point x="100" y="757" type="curve" smooth="yes"/>
      <point x="100" y="296"/>
      <point x="391" y="-16"/>
      <point x="860" y="-16" type="curve" smooth="yes"/>
      <point x="1045" y="-16"/>
      <point x="1156" y="29"/>
      <point x="1244" y="64" type="curve"/>
      <point x="1243" y="326" type="line"/>
      <point x="1190" y="287"/>
      <point x="1028" y="230"/>
      <point x="890" y="230" type="curve" smooth="yes"/>
      <point x="601" y="230"/>
      <point x="428" y="461"/>
      <point x="428" y="777" type="curve" smooth="yes"/>
      <point x="428" y="1097"/>
      <point x="619" y="1286"/>
      <point x="866" y="1286" type="curve" smooth="yes"/>
      <point x="1072" y="1286"/>
      <point x="1160" y="1228"/>
      <point x="1214" y="1199" type="curve"/>
      <point x="1260" y="1479" type="line"/>
      <point x="1164" y="1497"/>
      <point x="1067" y="1538"/>
      <point x="846" y="1538" type="curve" smooth="yes"/>
      <point x="431" y="1538"/>
      <point x="100" y="1261"/>
    </contour>
    <contour>
      <point x="821" y="-170" type="move" name="btm"/>
    </contour>
    <contour>
      <point x="832" y="1700" type="move" name="top"/>
    </contour>
  </outline>
</glyph>
<glyph name="H" format="1">
  <advance width="1601"/>
  <unicode hex="0048"/>
  <outline>
    <contour>
      <point x="188" y="0" type="line"/>
      <point x="506" y="0" type="line"/>
      <point x="506" y="651" type="line"/>
      <point x="1099" y="651" type="line"/>
      <point x="1099" y="0" type="line"/>
      <point x="1413" y="0" type="line"/>
      <point x="1413" y="1522" type="line"/>
      <point x="1099" y="1522" type="line"/>
      <point x="1099" y="890" type="line"/>
      <point x="506" y="890" type="line"/>
      <point x="506" y="1522" type="line"/>
      <point x="188" y="1522" type="line"/>
    </contour>
    <contour>
      <point x="779" y="-170" type="move" name="btm"/>
    </contour>
    <contour>
      <point x="800" y="1700" type="move" name="top"/>
    </contour>
  </outline>
</glyph>
<glyph name="K" format="1">
  <advance width="1444"/>
  <unicode hex="004B"/>
  <outline>
    <contour>
      <point x="188" y="0" type="line"/>
      <point x="506" y="0" type="line"/>
      <point x="506" y="658" type="line"/>
      <point x="460" y="417" type="line"/>
      <point x="724" y="715" type="line"/>
      <point x="778" y="754" type="line"/>
      <point x="1391" y="1522" type="line"/>
      <point x="1041" y="1522" type="line"/>
      <point x="506" y="848" type="line"/>
      <point x="506" y="1522" type="line"/>
      <point x="188" y="1522" type="line"/>
    </contour>
    <contour>
      <point x="994" y="113" type="curve" smooth="yes"/>
      <point x="1029" y="51"/>
      <point x="1039" y="26"/>
      <point x="1057" y="0" type="curve"/>
      <point x="1411" y="0" type="line"/>
      <point x="1346" y="110" type="line"/>
      <point x="1211" y="344"/>
      <point x="920" y="824"/>
      <point x="855" y="910" type="curve"/>
      <point x="745" y="796" type="line"/>
      <point x="640" y="680" type="line"/>
      <point x="744" y="532"/>
      <point x="882" y="315"/>
    </contour>
    <contour>
      <point x="745" y="-170" type="move" name="btm"/>
    </contour>
    <contour>
      <point x="745" y="1701" type="move" name="top"/>
    </contour>
  </outline>
</glyph>
<glyph name="P" format="1">
  <advance width="1359"/>
  <unicode hex="0050"/>
  <outline>
    <contour>
      <point x="188" y="0" type="line"/>
      <point x="506" y="0" type="line"/>
      <point x="506" y="463" type="line"/>
      <point x="541" y="462"/>
      <point x="594" y="461"/>
      <point x="680" y="461" type="curve" smooth="yes"/>
      <point x="1074" y="461"/>
      <point x="1289" y="665"/>
      <point x="1289" y="1013" type="curve" smooth="yes"/>
      <point x="1289" y="1389"/>
      <point x="1081" y="1538"/>
      <point x="733" y="1538" type="curve" smooth="yes"/>
      <point x="588" y="1538"/>
      <point x="452" y="1522"/>
      <point x="284" y="1522" type="curve" smooth="yes"/>
      <point x="188" y="1522" type="line"/>
    </contour>
    <contour>
      <point x="506" y="710" type="curve"/>
      <point x="506" y="1293" type="line"/>
      <point x="554" y="1303"/>
      <point x="616" y="1305"/>
      <point x="669" y="1307" type="curve" smooth="yes"/>
      <point x="867" y="1315"/>
      <point x="973" y="1210"/>
      <point x="973" y="1017" type="curve" smooth="yes"/>
      <point x="973" y="766"/>
      <point x="827" y="702"/>
      <point x="672" y="702" type="curve" smooth="yes"/>
      <point x="622" y="702"/>
      <point x="555" y="704"/>
    </contour>
    <contour>
      <point x="706" y="-170" type="move" name="btm"/>
    </contour>
    <contour>
      <point x="747" y="1701" type="move" name="top"/>
    </contour>
  </outline>
</glyph>
<glyph name="W" format="1">
  <advance width="1973"/>
  <unicode hex="0057"/>
  <outline>
    <contour>
      <point x="413" y="-16" type="line"/>
      <point x="717" y="-16" type="line"/>
      <point x="936" y="833" type="line"/>
      <point x="1024" y="1480" type="line"/>
      <point x="933" y="1481" type="line"/>
      <point x="1030" y="834" type="line"/>
      <point x="1244" y="-16" type="line"/>
      <point x="1570" y="-16" type="line"/>
      <point x="1968" y="1522" type="line"/>
      <point x="1650" y="1522" type="line"/>
      <point x="1477" y="628" type="line"/>
      <point x="1406" y="133" type="line"/>
      <point x="1451" y="133" type="line"/>
      <point x="1364" y="628" type="line"/>
      <point x="1130" y="1522" type="line"/>
      <point x="846" y="1522" type="line"/>
      <point x="626" y="628" type="line"/>
      <point x="545" y="135" type="line"/>
      <point x="583" y="135" type="line"/>
      <point x="512" y="628" type="line"/>
      <point x="324" y="1522" type="line"/>
      <point x="5" y="1522" type="line"/>
    </contour>
    <contour>
      <point x="966" y="-170" type="move" name="btm"/>
    </contour>
    <contour>
      <point x="966" y="1700" type="move" name="top"/>
    </contour>
  </outline>
</glyph>
<glyph name="underscore" format="1">
  <advance width="1702"/>
  <unicode hex="005F"/>
  <outline>
    <contour>
      <point x="-35" y="-409" type="line"/>
      <point x="1737" y="-409" type="line"/>
      <point x="1737" y="-241" type="line"/>
      <point x="-35" y="-241" type="line"/>
    </contour>
  </outline>
</glyph>
<glyph name="a" format="1">
  <advance width="1223"/>
  <unicode hex="0061"/>
  <outline>
    <contour>
      <point x="474" y="-16" type="curve" smooth="yes"/>
      <point x="609" y="-16"/>
      <point x="710" y="40"/>
      <point x="771" y="96" type="curve"/>
      <point x="805" y="184" type="line"/>
      <point x="758" y="258" type="line"/>
      <point x="737" y="231"/>
      <point x="651" y="195"/>
      <point x="581" y="195" type="curve" smooth="yes"/>
      <point x="492" y="195"/>
      <point x="424" y="246"/>
      <point x="424" y="357" type="curve" smooth="yes"/>
      <point x="424" y="442"/>
      <point x="476" y="471"/>
      <point x="523" y="489" type="curve" smooth="yes"/>
      <point x="570" y="511"/>
      <point x="683" y="530"/>
      <point x="758" y="530" type="curve"/>
      <point x="810" y="638" type="line"/>
      <point x="758" y="706" type="line"/>
      <point x="614" y="706"/>
      <point x="427" y="696"/>
      <point x="301" y="640" type="curve" smooth="yes"/>
      <point x="178" y="585"/>
      <point x="102" y="493"/>
      <point x="102" y="355" type="curve" smooth="yes"/>
      <point x="102" y="140"/>
      <point x="250" y="-16"/>
    </contour>
    <contour>
      <point x="1070" y="-16" type="line"/>
      <point x="1070" y="745" type="line" smooth="yes"/>
      <point x="1070" y="1076"/>
      <point x="924" y="1162"/>
      <point x="607" y="1162" type="curve" smooth="yes"/>
      <point x="427" y="1162"/>
      <point x="222" y="1087"/>
      <point x="149" y="1043" type="curve"/>
      <point x="218" y="843" type="line"/>
      <point x="315" y="887"/>
      <point x="471" y="924"/>
      <point x="532" y="924" type="curve" smooth="yes"/>
      <point x="725" y="924"/>
      <point x="758" y="900"/>
      <point x="758" y="778" type="curve" smooth="yes"/>
      <point x="758" y="170" type="line"/>
      <point x="771" y="170" type="line"/>
      <point x="771" y="88" type="line" smooth="yes"/>
      <point x="771" y="-11"/>
      <point x="812" y="-16"/>
      <point x="888" y="-16" type="curve" smooth="yes"/>
    </contour>
    <contour>
      <point x="516" y="-170" type="move" name="btm"/>
    </contour>
    <contour>
      <point x="626" y="1700" type="move" name="top"/>
    </contour>
  </outline>
</glyph>
<glyph name="d" format="1">
  <advance width="1339"/>
  <unicode hex="0064"/>
  <outline>
    <contour>
      <point x="959" y="-16" type="curve" smooth="yes"/>
      <point x="1171" y="-16" type="line"/>
      <point x="1171" y="1662" type="line"/>
      <point x="859" y="1662" type="line"/>
      <point x="859" y="1224" type="line"/>
      <point x="869" y="931" type="line"/>
      <point x="859" y="925" type="line"/>
      <point x="859" y="158" type="line"/>
      <point x="884" y="143" type="line"/>
      <point x="884" y="42" type="line" smooth="yes"/>
      <point x="884" y="-9"/>
      <point x="914" y="-16"/>
    </contour>
    <contour>
      <point x="549" y="-16" type="curve" smooth="yes"/>
      <point x="754" y="-16"/>
      <point x="851" y="84"/>
      <point x="898" y="134" type="curve"/>
      <point x="860" y="288" type="line"/>
      <point x="813" y="255"/>
      <point x="732" y="227"/>
      <point x="645" y="227" type="curve" smooth="yes"/>
      <point x="510" y="227"/>
      <point x="420" y="305"/>
      <point x="422" y="559" type="curve" smooth="yes"/>
      <point x="424" y="812"/>
      <point x="536" y="934"/>
      <point x="684" y="934" type="curve" smooth="yes"/>
      <point x="753" y="934"/>
      <point x="819" y="930"/>
      <point x="860" y="901" type="curve"/>
      <point x="932" y="1087" type="line"/>
      <point x="907" y="1110"/>
      <point x="813" y="1156"/>
      <point x="675" y="1156" type="curve" smooth="yes"/>
      <point x="328" y="1156"/>
      <point x="95" y="912"/>
      <point x="95" y="533" type="curve" smooth="yes"/>
      <point x="95" y="163"/>
      <point x="307" y="-16"/>
    </contour>
    <contour>
      <point x="592" y="-170" type="move" name="btm"/>
    </contour>
    <contour>
      <point x="422" y="1701" type="move" name="top"/>
    </contour>
  </outline>
</glyph>
<glyph name="o" format="1">
  <advance width="1302"/>
  <unicode hex="006F"/>
  <outline>
    <contour>
      <point x="641" y="-16" type="curve" smooth="yes"/>
      <point x="964" y="-16"/>
      <point x="1201" y="180"/>
      <point x="1206" y="546" type="curve" smooth="yes"/>
      <point x="1211" y="871"/>
      <point x="1064" y="1156"/>
      <point x="662" y="1156" type="curve" smooth="yes"/>
      <point x="338" y="1156"/>
      <point x="102" y="960"/>
      <point x="96" y="594" type="curve" smooth="yes"/>
      <point x="92" y="269"/>
      <point x="239" y="-16"/>
    </contour>
    <contour>
      <point x="648" y="204" type="curve" smooth="yes"/>
      <point x="485" y="206"/>
      <point x="419" y="387"/>
      <point x="419" y="586" type="curve" smooth="yes"/>
      <point x="419" y="807"/>
      <point x="490" y="935"/>
      <point x="655" y="934" type="curve" smooth="yes"/>
      <point x="819" y="932"/>
      <point x="883" y="755"/>
      <point x="883" y="561" type="curve" smooth="yes"/>
      <point x="883" y="332"/>
      <point x="813" y="202"/>
    </contour>
    <contour>
      <point x="646" y="-170" type="move" name="btm"/>
    </contour>
    <contour>
      <point x="660" y="1700" type="move" name="top"/>
    </contour>
  </outline>
</glyph>
<glyph name="p" format="1">
  <advance width="1340"/>
  <unicode hex="0070"/>
  <outline>
    <contour>
      <point x="168" y="-506" type="line"/>
      <point x="480" y="-506" type="line"/>
      <point x="480" y="-139" type="line"/>
      <point x="476" y="37" type="line"/>
      <point x="480" y="197" type="line"/>
      <point x="480" y="976" type="line"/>
      <point x="459" y="1002" type="line"/>
      <point x="459" y="1140" type="line"/>
      <point x="168" y="1140" type="line"/>
    </contour>
    <contour>
      <point x="665" y="-16" type="curve" smooth="yes"/>
      <point x="1012" y="-16"/>
      <point x="1245" y="233"/>
      <point x="1245" y="612" type="curve" smooth="yes"/>
      <point x="1245" y="982"/>
      <point x="1033" y="1156"/>
      <point x="791" y="1156" type="curve" smooth="yes"/>
      <point x="586" y="1156"/>
      <point x="489" y="1056"/>
      <point x="442" y="1006" type="curve"/>
      <point x="480" y="852" type="line"/>
      <point x="527" y="890"/>
      <point x="608" y="923"/>
      <point x="695" y="923" type="curve" smooth="yes"/>
      <point x="830" y="923"/>
      <point x="920" y="848"/>
      <point x="918" y="587" type="curve" smooth="yes"/>
      <point x="916" y="341"/>
      <point x="804" y="203"/>
      <point x="656" y="203" type="curve" smooth="yes"/>
      <point x="587" y="203"/>
      <point x="521" y="212"/>
      <point x="480" y="249" type="curve"/>
      <point x="408" y="53" type="line"/>
      <point x="433" y="30"/>
      <point x="527" y="-16"/>
    </contour>
    <contour>
      <point x="732" y="-170" type="move" name="btm"/>
    </contour>
    <contour>
      <point x="786" y="1700" type="move" name="top"/>
    </contour>
  </outline>
</glyph>
<glyph name="u" format="1">
  <advance width="1326"/>
  <unicode hex="0075"/>
  <outline>
    <contour>
      <point x="537" y="-16" type="curve" smooth="yes"/>
      <point x="651" y="-16"/>
      <point x="793" y="36"/>
      <point x="876" y="98" type="curve"/>
      <point x="870" y="129" type="line"/>
      <point x="870" y="42" type="line" smooth="yes"/>
      <point x="870" y="-7"/>
      <point x="897" y="-16"/>
      <point x="946" y="-16" type="curve" smooth="yes"/>
      <point x="1152" y="-16" type="line"/>
      <point x="1152" y="1140" type="line"/>
      <point x="840" y="1140" type="line"/>
      <point x="840" y="288" type="line"/>
      <point x="806" y="261"/>
      <point x="722" y="223"/>
      <point x="649" y="223" type="curve" smooth="yes"/>
      <point x="529" y="223"/>
      <point x="474" y="258"/>
      <point x="474" y="477" type="curve" smooth="yes"/>
      <point x="474" y="1140" type="line"/>
      <point x="162" y="1140" type="line"/>
      <point x="162" y="474" type="line" smooth="yes"/>
      <point x="162" y="181"/>
      <point x="211" y="-16"/>
    </contour>
    <contour>
      <point x="646" y="-170" type="move" name="btm"/>
    </contour>
    <contour>
      <point x="674" y="1700" type="move" name="top"/>
    </contour>
  </outline>
</glyph>
<glyph name="v" format="1">
  <advance width="1191"/>
  <unicode hex="0076"/>
  <outline>
    <contour>
      <point x="450" y="-16" type="line"/>
      <point x="739" y="-16" type="line"/>
      <point x="1174" y="1140" type="line"/>
      <point x="844" y="1140" type="line"/>
      <point x="670" y="580" type="line"/>
      <point x="570" y="179" type="line"/>
      <point x="633" y="179" type="line"/>
      <point x="528" y="580" type="line"/>
      <point x="354" y="1140" type="line"/>
      <point x="17" y="1140" type="line"/>
    </contour>
  </outline>
</glyph>
<glyph name="asciitilde" format="1">
  <advance width="1448"/>
  <unicode hex="007E"/>
  <outline>
    <contour>
      <point x="338" y="702" type="line"/>
      <point x="382" y="750"/>
      <point x="440" y="808"/>
      <point x="534" y="808" type="curve" smooth="yes"/>
      <point x="692" y="808"/>
      <point x="701" y="649"/>
      <point x="908" y="649" type="curve" smooth="yes"/>
      <point x="1077" y="649"/>
      <point x="1211" y="767"/>
      <point x="1239" y="860" type="curve"/>
      <point x="1123" y="998" type="line"/>
      <point x="1080" y="951"/>
      <point x="1017" y="893"/>
      <point x="922" y="893" type="curve" smooth="yes"/>
      <point x="774" y="893"/>
      <point x="742" y="1050"/>
      <point x="533" y="1050" type="curve" smooth="yes"/>
      <point x="370" y="1050"/>
      <point x="233" y="910"/>
      <point x="208" y="830" type="curve"/>
    </contour>
  </outline>
</glyph>
<glyph name="currency" format="1">
  <advance width="1544"/>
  <unicode hex="00A4"/>
  <outline>
    <contour>
      <point x="764" y="317" type="curve" smooth="yes"/>
      <point x="1012" y="317"/>
      <point x="1214" y="518"/>
      <point x="1214" y="773" type="curve" smooth="yes"/>
      <point x="1214" y="1027"/>
      <point x="1012" y="1229"/>
      <point x="764" y="1229" type="curve" smooth="yes"/>
      <point x="517" y="1229"/>
      <point x="316" y="1027"/>
      <point x="316" y="773" type="curve"/>
      <point x="316" y="518"/>
      <point x="517" y="317"/>
    </contour>
    <contour>
      <point x="766" y="537" type="curve" smooth="yes"/>
      <point x="641" y="537"/>
      <point x="538" y="647"/>
      <point x="538" y="773" type="curve" smooth="yes"/>
      <point x="538" y="899"/>
      <point x="641" y="1009"/>
      <point x="766" y="1009" type="curve" smooth="yes"/>
      <point x="891" y="1009"/>
      <point x="992" y="899"/>
      <point x="992" y="773" type="curve" smooth="yes"/>
      <point x="992" y="647"/>
      <point x="891" y="537"/>
    </contour>
    <contour>
      <point x="420" y="1003" type="line"/>
      <point x="559" y="1149" type="line"/>
      <point x="340" y="1374" type="line"/>
      <point x="201" y="1227" type="line"/>
    </contour>
    <contour>
      <point x="1112" y="1000" type="line"/>
      <point x="1344" y="1234" type="line"/>
      <point x="1203" y="1381" type="line"/>
      <point x="971" y="1148" type="line"/>
    </contour>
    <contour>
      <point x="341" y="170" type="line"/>
      <point x="560" y="393" type="line"/>
      <point x="419" y="537" type="line"/>
      <point x="200" y="314" type="line"/>
    </contour>
    <contour>
      <point x="1191" y="171" type="line"/>
      <point x="1331" y="316" type="line"/>
      <point x="1112" y="539" type="line"/>
      <point x="971" y="394" type="line"/>
    </contour>
  </outline>
</glyph>
<glyph name="yen" format="1">
  <advance width="1576"/>
  <unicode hex="00A5"/>
  <outline>
    <contour>
      <point x="934" y="0" type="line"/>
      <point x="934" y="846" type="line"/>
      <point x="870" y="620" type="line"/>
      <point x="1437" y="1522" type="line"/>
      <point x="1112" y="1522" type="line"/>
      <point x="857" y="1104" type="line"/>
      <point x="757" y="892" type="line"/>
      <point x="823" y="892" type="line"/>
      <point x="721" y="1102" type="line"/>
      <point x="481" y="1522" type="line"/>
      <point x="158" y="1522" type="line"/>
      <point x="721" y="620" type="line"/>
      <point x="644" y="846" type="line"/>
      <point x="644" y="0" type="line"/>
    </contour>
    <contour>
      <point x="286" y="659" type="line"/>
      <point x="1281" y="659" type="line"/>
      <point x="1281" y="851" type="line"/>
      <point x="286" y="851" type="line"/>
    </contour>
    <contour>
      <point x="286" y="269" type="line"/>
      <point x="1281" y="269" type="line"/>
      <point x="1281" y="461" type="line"/>
      <point x="286" y="461" type="line"/>
    </contour>
  </outline>
</glyph>
<glyph name="brokenbar" format="1">
  <advance width="865"/>
  <unicode hex="00A6"/>
  <outline>
    <contour>
      <point x="305" y="964" type="line"/>
      <point x="560" y="964" type="line"/>
      <point x="560" y="1780" type="line"/>
      <point x="305" y="1780" type="line"/>
    </contour>
    <contour>
      <point x="305" y="-186" type="line"/>
      <point x="560" y="-186" type="line"/>
      <point x="560" y="620" type="line"/>
      <point x="305" y="620" type="line"/>
    </contour>
  </outline>
</glyph>
<glyph name="degree" format="1">
  <advance width="957"/>
  <unicode hex="00B0"/>
  <outline>
    <contour>
      <point x="118" y="1278" type="curve" smooth="yes"/>
      <point x="118" y="1078"/>
      <point x="278" y="921"/>
      <point x="478" y="921" type="curve" smooth="yes"/>
      <point x="685" y="921"/>
      <point x="838" y="1072"/>
      <point x="838" y="1278" type="curve" smooth="yes"/>
      <point x="838" y="1478"/>
      <point x="679" y="1634"/>
      <point x="478" y="1634" type="curve" smooth="yes"/>
      <point x="272" y="1634"/>
      <point x="118" y="1482"/>
    </contour>
    <contour>
      <point x="306" y="1278" type="curve" smooth="yes"/>
      <point x="306" y="1382"/>
      <point x="380" y="1458"/>
      <point x="478" y="1458" type="curve" smooth="yes"/>
      <point x="574" y="1458"/>
      <point x="651" y="1380"/>
      <point x="651" y="1278" type="curve" smooth="yes"/>
      <point x="651" y="1174"/>
      <point x="576" y="1097"/>
      <point x="478" y="1097" type="curve" smooth="yes"/>
      <point x="383" y="1097"/>
      <point x="306" y="1176"/>
    </contour>
  </outline>
</glyph>
<glyph name="onesuperior" format="1">
  <advance width="1066"/>
  <unicode hex="00B9"/>
  <outline>
    <contour>
      <point x="411" y="673" type="line"/>
      <point x="690" y="673" type="line"/>
      <point x="690" y="1679" type="line"/>
      <point x="545" y="1704" type="line"/>
      <point x="498" y="1665"/>
      <point x="296" y="1551"/>
      <point x="175" y="1516" type="curve"/>
      <point x="215" y="1355" type="line"/>
      <point x="288" y="1368"/>
      <point x="344" y="1384"/>
      <point x="411" y="1402" type="curve"/>
    </contour>
  </outline>
</glyph>
<glyph name="Eth" format="1">
  <advance width="1554"/>
  <unicode hex="00D0"/>
  <outline>
    <contour>
      <point x="69" y="694" type="line"/>
      <point x="846" y="694" type="line"/>
      <point x="846" y="895" type="line"/>
      <point x="69" y="895" type="line"/>
    </contour>
    <component base="D"/>
  </outline>
</glyph>
<glyph name="multiply" format="1">
  <advance width="1380"/>
  <unicode hex="00D7"/>
  <outline>
    <contour>
      <point x="168" y="408" type="line"/>
      <point x="339" y="237" type="line"/>
      <point x="690" y="605" type="line"/>
      <point x="1041" y="237" type="line"/>
      <point x="1212" y="408" type="line"/>
      <point x="856" y="777" type="line"/>
      <point x="1215" y="1160" type="line"/>
      <point x="1044" y="1320" type="line"/>
      <point x="693" y="942" type="line"/>
      <point x="339" y="1320" type="line"/>
      <point x="168" y="1160" type="line"/>
      <point x="527" y="776" type="line"/>
    </contour>
  </outline>
</glyph>
<glyph name="divide" format="1">
  <advance width="1403"/>
  <unicode hex="00F7"/>
  <outline>
    <contour>
      <point x="712" y="1025" type="curve" smooth="yes"/>
      <point x="825" y="1025"/>
      <point x="916" y="1119"/>
      <point x="916" y="1232" type="curve" smooth="yes"/>
      <point x="916" y="1339"/>
      <point x="849" y="1419"/>
      <point x="732" y="1419" type="curve" smooth="yes"/>
      <point x="621" y="1419"/>
      <point x="527" y="1324"/>
      <point x="527" y="1213" type="curve" smooth="yes"/>
      <point x="527" y="1104"/>
      <point x="605" y="1025"/>
    </contour>
    <contour>
      <point x="708" y="137" type="curve" smooth="yes"/>
      <point x="821" y="137"/>
      <point x="912" y="231"/>
      <point x="912" y="344" type="curve" smooth="yes"/>
      <point x="912" y="450"/>
      <point x="845" y="531"/>
      <point x="729" y="531" type="curve" smooth="yes"/>
      <point x="618" y="531"/>
      <point x="523" y="436"/>
      <point x="523" y="325" type="curve" smooth="yes"/>
      <point x="523" y="216"/>
      <point x="601" y="137"/>
    </contour>
    <contour>
      <point x="203" y="655" type="line"/>
      <point x="1200" y="655" type="line"/>
      <point x="1200" y="889" type="line"/>
      <point x="203" y="889" type="line"/>
    </contour>
  </outline>
</glyph>
<glyph name="aogonek" format="1">
  <advance width="1223"/>
  <unicode hex="0105"/>
  <outline>
    <contour>
      <point x="592" y="-316" type="curve" smooth="yes"/>
      <point x="598" y="-443"/>
      <point x="727" y="-516"/>
      <point x="853" y="-516" type="curve" smooth="yes"/>
      <point x="937" y="-516"/>
      <point x="1025" y="-491"/>
      <point x="1083" y="-448" type="curve"/>
      <point x="1083" y="-291" type="line"/>
      <point x="1041" y="-303"/>
      <point x="997" y="-311"/>
      <point x="958" y="-311" type="curve" smooth="yes"/>
      <point x="891" y="-311"/>
      <point x="840" y="-288"/>
      <point x="837" y="-223" type="curve" smooth="yes"/>
      <point x="830" y="-123"/>
      <point x="926" y="-58"/>
      <point x="1036" y="13" type="curve"/>
      <point x="930" y="54" type="line"/>
      <point x="810" y="1" type="line"/>
      <point x="704" y="-57"/>
      <point x="583" y="-165"/>
    </contour>
    <component base="a"/>
  </outline>
</glyph>
<glyph name="eogonek" format="1">
  <advance width="1190"/>
  <unicode hex="0119"/>
  <outline>
    <contour>
      <point x="582" y="-316" type="curve"/>
      <point x="588" y="-443"/>
      <point x="717" y="-516"/>
      <point x="843" y="-516" type="curve" smooth="yes"/>
      <point x="927" y="-516"/>
      <point x="1015" y="-491"/>
      <point x="1073" y="-448" type="curve"/>
      <point x="1073" y="-291" type="line"/>
      <point x="1031" y="-303"/>
      <point x="987" y="-311"/>
      <point x="948" y="-311" type="curve" smooth="yes"/>
      <point x="881" y="-311"/>
      <point x="830" y="-288"/>
      <point x="827" y="-223" type="curve"/>
      <point x="827" y="-84"/>
      <point x="958" y="25"/>
      <point x="1046" y="90" type="curve"/>
      <point x="920" y="54" type="line"/>
      <point x="781" y="11" type="line"/>
      <point x="675" y="-47"/>
      <point x="573" y="-165"/>
    </contour>
    <component base="e"/>
  </outline>
</glyph>
<glyph name="kgreenlandic" format="1">
  <advance width="1241"/>
  <unicode hex="0138"/>
  <outline>
    <contour>
      <point x="1224" y="1140" type="line"/>
      <point x="875" y="1140" type="line"/>
      <point x="429" y="559" type="line"/>
      <point x="475" y="530" type="line"/>
      <point x="486" y="779" type="line"/>
      <point x="486" y="1140" type="line"/>
      <point x="174" y="1140" type="line"/>
      <point x="174" y="0" type="line"/>
      <point x="486" y="0" type="line"/>
      <point x="486" y="160" type="line"/>
      <point x="483" y="331" type="line"/>
      <point x="467" y="265" type="line"/>
    </contour>
    <contour>
      <point x="585" y="483" type="line"/>
      <point x="902" y="0" type="line"/>
      <point x="1257" y="0" type="line"/>
      <point x="792" y="699" type="line"/>
    </contour>
  </outline>
</glyph>
<glyph name="Tbar" format="1">
  <advance width="1250"/>
  <unicode hex="0166"/>
  <outline>
    <contour>
      <point x="193" y="597" type="line"/>
      <point x="1075" y="597" type="line"/>
      <point x="1075" y="796" type="line"/>
      <point x="193" y="796" type="line"/>
    </contour>
    <component base="T"/>
  </outline>
</glyph>
<glyph name="tbar" format="1">
  <advance width="913"/>
  <unicode hex="0167"/>
  <outline>
    <contour>
      <point x="81" y="523" type="line"/>
      <point x="839" y="523" type="line"/>
      <point x="839" y="737" type="line"/>
      <point x="81" y="737" type="line"/>
    </contour>
    <component base="t"/>
  </outline>
</glyph>
<glyph name="uogonek" format="1">
  <advance width="1326"/>
  <unicode hex="0173"/>
  <outline>
    <contour>
      <point x="708" y="-316" type="curve"/>
      <point x="714" y="-443"/>
      <point x="843" y="-516"/>
      <point x="969" y="-516" type="curve" smooth="yes"/>
      <point x="1053" y="-516"/>
      <point x="1141" y="-491"/>
      <point x="1199" y="-448" type="curve"/>
      <point x="1199" y="-291" type="line"/>
      <point x="1157" y="-303"/>
      <point x="1113" y="-311"/>
      <point x="1074" y="-311" type="curve" smooth="yes"/>
      <point x="1007" y="-311"/>
      <point x="956" y="-288"/>
      <point x="953" y="-223" type="curve"/>
      <point x="946" y="-123"/>
      <point x="1042" y="-58"/>
      <point x="1152" y="13" type="curve"/>
      <point x="1046" y="54" type="line"/>
      <point x="926" y="1" type="line"/>
      <point x="820" y="-57"/>
      <point x="699" y="-165"/>
    </contour>
    <component base="u"/>
  </outline>
</glyph>
<glyph name="florin" format="1">
  <advance width="1179"/>
  <unicode hex="0192"/>
  <outline>
    <contour>
      <point x="273" y="-356" type="line"/>
      <point x="587" y="-356" type="line"/>
      <point x="697" y="924" type="line"/>
      <point x="972" y="924" type="line"/>
      <point x="989" y="1140" type="line"/>
      <point x="715" y="1140" type="line"/>
      <point x="725" y="1229" type="line" smooth="yes"/>
      <point x="742" y="1393"/>
      <point x="819" y="1457"/>
      <point x="922" y="1457" type="curve" smooth="yes"/>
      <point x="1003" y="1457"/>
      <point x="1057" y="1448"/>
      <point x="1079" y="1434" type="curve"/>
      <point x="1097" y="1663" type="line"/>
      <point x="1077" y="1672"/>
      <point x="1003" y="1684"/>
      <point x="913" y="1684" type="curve" smooth="yes"/>
      <point x="678" y="1684"/>
      <point x="446" y="1571"/>
      <point x="410" y="1223" type="curve" smooth="yes"/>
      <point x="401" y="1140" type="line"/>
      <point x="222" y="1102" type="line"/>
      <point x="208" y="924" type="line"/>
      <point x="384" y="924" type="line"/>
    </contour>
  </outline>
</glyph>
<glyph name="breve" format="1">
  <advance width="815"/>
  <unicode hex="02D8"/>
  <outline>
    <contour>
      <point x="408" y="1298" type="curve" smooth="yes"/>
      <point x="633" y="1298"/>
      <point x="780" y="1474"/>
      <point x="772" y="1685" type="curve"/>
      <point x="579" y="1685" type="line"/>
      <point x="574" y="1641"/>
      <point x="562" y="1516"/>
      <point x="409" y="1516" type="curve" smooth="yes"/>
      <point x="252" y="1516"/>
      <point x="244" y="1640"/>
      <point x="240" y="1685" type="curve"/>
      <point x="44" y="1685" type="line"/>
      <point x="36" y="1474"/>
      <point x="172" y="1298"/>
    </contour>
    <contour>
      <point x="407" y="1701" type="move" name="_top"/>
    </contour>
  </outline>
</glyph>
<glyph name="pi" format="1">
  <advance width="1600"/>
  <unicode hex="03C0"/>
  <outline>
    <contour>
      <point x="67" y="881" type="curve"/>
      <point x="187" y="804" type="line"/>
      <point x="225" y="838"/>
      <point x="272" y="887"/>
      <point x="374" y="887" type="curve" smooth="yes"/>
      <point x="1222" y="887" type="line" smooth="yes"/>
      <point x="1431" y="887"/>
      <point x="1528" y="979"/>
      <point x="1539" y="1215" type="curve"/>
      <point x="1345" y="1215" type="line"/>
      <point x="1327" y="1161"/>
      <point x="1300" y="1140"/>
      <point x="1218" y="1140" type="curve" smooth="yes"/>
      <point x="409" y="1140" type="line" smooth="yes"/>
      <point x="248" y="1140"/>
      <point x="173" y="1096"/>
      <point x="119" y="1024" type="curve" smooth="yes"/>
      <point x="87" y="979"/>
      <point x="69" y="912"/>
    </contour>
    <contour>
      <point x="911" y="279" type="line"/>
      <point x="897" y="109"/>
      <point x="956" y="-24"/>
      <point x="1132" y="-24" type="curve" smooth="yes"/>
      <point x="1346" y="-24"/>
      <point x="1489" y="101"/>
      <point x="1532" y="219" type="curve"/>
      <point x="1417" y="341" type="line"/>
      <point x="1380" y="292"/>
      <point x="1319" y="202"/>
      <point x="1240" y="202" type="curve" smooth="yes"/>
      <point x="1202" y="202"/>
      <point x="1177" y="243"/>
      <point x="1181" y="329" type="curve" smooth="yes"/>
      <point x="1215" y="1083" type="line"/>
      <point x="982" y="1081" type="line"/>
    </contour>
    <contour>
      <point x="158" y="114" type="curve"/>
      <point x="334" y="-24" type="line"/>
      <point x="413" y="-16"/>
      <point x="475" y="16"/>
      <point x="516" y="52" type="curve" smooth="yes"/>
      <point x="606" y="135"/>
      <point x="656" y="200"/>
      <point x="668" y="428" type="curve" smooth="yes"/>
      <point x="703" y="1081" type="line"/>
      <point x="459" y="1081" type="line"/>
      <point x="397" y="487" type="line" smooth="yes"/>
      <point x="383" y="347"/>
      <point x="357" y="243"/>
      <point x="257" y="166" type="curve" smooth="yes"/>
      <point x="218" y="137"/>
      <point x="175" y="118"/>
    </contour>
  </outline>
</glyph>
<glyph name="quoteleft" format="1">
  <advance width="560"/>
  <unicode hex="2018"/>
  <outline>
    <contour>
      <point x="279" y="940" type="curve"/>
      <point x="448" y="1064" type="line"/>
      <point x="448" y="1135" type="line"/>
      <point x="408" y="1156"/>
      <point x="358" y="1245"/>
      <point x="358" y="1358" type="curve" smooth="yes"/>
      <point x="358" y="1449"/>
      <point x="384" y="1575"/>
      <point x="428" y="1625" type="curve"/>
      <point x="428" y="1653" type="line"/>
      <point x="298" y="1736" type="line"/>
      <point x="233" y="1687"/>
      <point x="94" y="1528"/>
      <point x="94" y="1286" type="curve" smooth="yes"/>
      <point x="94" y="1102"/>
      <point x="181" y="976"/>
    </contour>
  </outline>
</glyph>
<glyph name="quoteright" format="1">
  <advance width="560"/>
  <unicode hex="2019"/>
  <outline>
    <contour>
      <point x="244" y="940" type="line"/>
      <point x="309" y="990"/>
      <point x="448" y="1149"/>
      <point x="448" y="1390" type="curve" smooth="yes"/>
      <point x="448" y="1575"/>
      <point x="360" y="1701"/>
      <point x="263" y="1736" type="curve"/>
      <point x="94" y="1612" type="line"/>
      <point x="94" y="1541" type="line"/>
      <point x="133" y="1520"/>
      <point x="183" y="1431"/>
      <point x="183" y="1319" type="curve" smooth="yes"/>
      <point x="183" y="1227"/>
      <point x="157" y="1101"/>
      <point x="114" y="1051" type="curve"/>
      <point x="114" y="1023" type="line"/>
    </contour>
  </outline>
</glyph>
<glyph name="quotereversed" format="1">
  <advance width="560"/>
  <unicode hex="201B"/>
  <outline>
    <contour>
      <point x="279" y="1736" type="line"/>
      <point x="181" y="1701"/>
      <point x="94" y="1575"/>
      <point x="94" y="1390" type="curve" smooth="yes"/>
      <point x="94" y="1149"/>
      <point x="233" y="990"/>
      <point x="298" y="940" type="curve"/>
      <point x="428" y="1023" type="line"/>
      <point x="428" y="1051" type="line"/>
      <point x="384" y="1101"/>
      <point x="358" y="1227"/>
      <point x="358" y="1319" type="curve" smooth="yes"/>
      <point x="358" y="1431"/>
      <point x="408" y="1520"/>
      <point x="448" y="1541" type="curve"/>
      <point x="448" y="1612" type="line"/>
    </contour>
  </outline>
</glyph>
<glyph name="bullet" format="1">
  <advance width="905"/>
  <unicode hex="2022"/>
  <outline>
    <contour>
      <point x="443" y="467" type="curve" smooth="yes"/>
      <point x="591" y="467"/>
      <point x="715" y="593"/>
      <point x="718" y="738" type="curve" smooth="yes"/>
      <point x="721" y="886"/>
      <point x="612" y="995"/>
      <point x="464" y="995" type="curve" smooth="yes"/>
      <point x="317" y="995"/>
      <point x="190" y="871"/>
      <point x="187" y="725" type="curve" smooth="yes"/>
      <point x="184" y="580"/>
      <point x="295" y="467"/>
    </contour>
  </outline>
</glyph>
<glyph name="ellipsis" format="1">
  <advance width="1903"/>
  <unicode hex="2026"/>
  <outline>
    <contour>
      <point x="313" y="-22" type="curve" smooth="yes"/>
      <point x="426" y="-22"/>
      <point x="517" y="76"/>
      <point x="515" y="191" type="curve" smooth="yes"/>
      <point x="514" y="299"/>
      <point x="446" y="383"/>
      <point x="330" y="383" type="curve" smooth="yes"/>
      <point x="218" y="383"/>
      <point x="125" y="284"/>
      <point x="126" y="171" type="curve" smooth="yes"/>
      <point x="127" y="61"/>
      <point x="206" y="-22"/>
    </contour>
    <contour>
      <point x="944" y="-22" type="curve" smooth="yes"/>
      <point x="1057" y="-22"/>
      <point x="1148" y="76"/>
      <point x="1146" y="191" type="curve" smooth="yes"/>
      <point x="1145" y="299"/>
      <point x="1077" y="383"/>
      <point x="961" y="383" type="curve" smooth="yes"/>
      <point x="849" y="383"/>
      <point x="756" y="284"/>
      <point x="757" y="171" type="curve" smooth="yes"/>
      <point x="758" y="61"/>
      <point x="837" y="-22"/>
    </contour>
    <contour>
      <point x="1575" y="-22" type="curve" smooth="yes"/>
      <point x="1688" y="-22"/>
      <point x="1779" y="76"/>
      <point x="1777" y="191" type="curve" smooth="yes"/>
      <point x="1776" y="299"/>
      <point x="1708" y="383"/>
      <point x="1592" y="383" type="curve" smooth="yes"/>
      <point x="1480" y="383"/>
      <point x="1387" y="284"/>
      <point x="1388" y="171" type="curve" smooth="yes"/>
      <point x="1389" y="61"/>
      <point x="1468" y="-22"/>
    </contour>
  </outline>
</glyph>
<glyph name="minute" format="1">
  <advance width="692"/>
  <unicode hex="2032"/>
  <outline>
    <contour>
      <point x="161" y="1190" type="line"/>
      <point x="395" y="1190" type="line"/>
      <point x="571" y="1826" type="line"/>
      <point x="270" y="1826" type="line"/>
    </contour>
  </outline>
</glyph>
<glyph name="naira" format="1">
  <advance width="1716"/>
  <unicode hex="20A6"/>
  <outline>
    <contour>
      <point x="88" y="970" type="line" name="hr00"/>
      <point x="266" y="970" type="line"/>
      <point x="266" y="555" type="line"/>
      <point x="67" y="555" type="line"/>
      <point x="67" y="408" type="line"/>
      <point x="266" y="408" type="line"/>
      <point x="266" y="0" type="line"/>
      <point x="579" y="0" type="line"/>
      <point x="579" y="408" type="line"/>
      <point x="940" y="408" type="line"/>
      <point x="1180" y="0" type="line"/>
      <point x="1489" y="0" type="line"/>
      <point x="1489" y="408" type="line"/>
      <point x="1654" y="408" type="line"/>
      <point x="1654" y="555" type="line"/>
      <point x="1489" y="555" type="line"/>
      <point x="1489" y="970" type="line"/>
      <point x="1683" y="970" type="line"/>
      <point x="1683" y="1117" type="line"/>
      <point x="1489" y="1117" type="line"/>
      <point x="1489" y="1522" type="line"/>
      <point x="1175" y="1522" type="line"/>
      <point x="1175" y="1117" type="line"/>
      <point x="802" y="1117" type="line"/>
      <point x="558" y="1522" type="line"/>
      <point x="266" y="1522" type="line"/>
      <point x="266" y="1117" type="line"/>
      <point x="88" y="1117" type="line"/>
    </contour>
    <contour>
      <point x="537" y="1117" type="line"/>
      <point x="536" y="1117" type="line"/>
      <point x="536" y="1118" type="line"/>
    </contour>
    <contour>
      <point x="890" y="970" type="line"/>
      <point x="1175" y="970" type="line"/>
      <point x="1175" y="790" type="line"/>
      <point x="1198" y="555" type="line"/>
      <point x="1131" y="555" type="line"/>
      <point x="1075" y="662" type="line"/>
    </contour>
    <contour>
      <point x="579" y="717" type="line"/>
      <point x="552" y="970" type="line"/>
      <point x="616" y="970" type="line"/>
      <point x="684" y="843" type="line"/>
      <point x="853" y="555" type="line"/>
      <point x="579" y="555" type="line"/>
    </contour>
    <contour>
      <point x="1212" y="408" type="line"/>
      <point x="1213" y="399" type="line"/>
      <point x="1209" y="408" type="line"/>
    </contour>
  </outline>
</glyph>
<glyph name="peso" format="1">
  <advance width="1543"/>
  <unicode hex="20B1"/>
  <outline>
    <contour>
      <point x="62" y="1031" type="line" name="hr00"/>
      <point x="209" y="1031" type="line"/>
      <point x="209" y="918" type="line"/>
      <point x="62" y="918" type="line"/>
      <point x="62" y="811" type="line"/>
      <point x="209" y="811" type="line"/>
      <point x="209" y="0" type="line"/>
      <point x="575" y="0" type="line"/>
      <point x="575" y="422" type="line"/>
      <point x="613" y="421"/>
      <point x="661" y="418"/>
      <point x="760" y="418" type="curve" smooth="yes"/>
      <point x="1096" y="418"/>
      <point x="1301" y="554"/>
      <point x="1362" y="811" type="curve"/>
      <point x="1521" y="811" type="line"/>
      <point x="1521" y="918" type="line"/>
      <point x="1378" y="918" type="line"/>
      <point x="1380" y="940"/>
      <point x="1381" y="963"/>
      <point x="1381" y="987" type="curve" smooth="yes"/>
      <point x="1381" y="1002"/>
      <point x="1380" y="1016"/>
      <point x="1380" y="1031" type="curve"/>
      <point x="1521" y="1031" type="line"/>
      <point x="1521" y="1138" type="line"/>
      <point x="1369" y="1138" type="line"/>
      <point x="1318" y="1431"/>
      <point x="1109" y="1538"/>
      <point x="792" y="1538" type="curve" smooth="yes"/>
      <point x="631" y="1538"/>
      <point x="493" y="1522"/>
      <point x="381" y="1522" type="curve" smooth="yes"/>
      <point x="209" y="1522" type="line"/>
      <point x="209" y="1138" type="line"/>
      <point x="62" y="1138" type="line"/>
    </contour>
    <contour>
      <point x="575" y="1277" type="line"/>
      <point x="628" y="1285"/>
      <point x="694" y="1289"/>
      <point x="751" y="1290" type="curve" smooth="yes"/>
      <point x="884" y="1292"/>
      <point x="964" y="1235"/>
      <point x="1002" y="1138" type="curve"/>
      <point x="575" y="1138" type="line"/>
    </contour>
    <contour>
      <point x="1027" y="986" type="curve" smooth="yes"/>
      <point x="1027" y="962"/>
      <point x="1026" y="939"/>
      <point x="1023" y="918" type="curve"/>
      <point x="575" y="918" type="line"/>
      <point x="575" y="1031" type="line"/>
      <point x="1025" y="1031" type="line"/>
      <point x="1026" y="1016"/>
      <point x="1027" y="1001"/>
    </contour>
    <contour>
      <point x="575" y="679" type="curve"/>
      <point x="575" y="811" type="line"/>
      <point x="996" y="811" type="line"/>
      <point x="953" y="711"/>
      <point x="868" y="670"/>
      <point x="761" y="670" type="curve" smooth="yes"/>
      <point x="675" y="670"/>
      <point x="628" y="674"/>
    </contour>
  </outline>
</glyph>
<glyph name="rupeeIndian" format="1">
  <advance width="1474"/>
  <unicode hex="20B9"/>
  <outline>
    <contour>
      <point x="1313" y="0" type="line" name="hr00"/>
      <point x="1149" y="186"/>
      <point x="1097" y="514"/>
      <point x="914" y="644" type="curve"/>
      <point x="1029" y="710"/>
      <point x="1111" y="826"/>
      <point x="1144" y="973" type="curve"/>
      <point x="1352" y="973" type="line"/>
      <point x="1352" y="1158" type="line"/>
      <point x="1157" y="1158" type="line"/>
      <point x="1152" y="1240"/>
      <point x="1134" y="1298"/>
      <point x="1110" y="1341" type="curve"/>
      <point x="1384" y="1341" type="line"/>
      <point x="1384" y="1522" type="line"/>
      <point x="183" y="1522" type="line"/>
      <point x="183" y="1341" type="line"/>
      <point x="550" y="1341" type="line" smooth="yes"/>
      <point x="755" y="1341"/>
      <point x="791" y="1269"/>
      <point x="797" y="1158" type="curve"/>
      <point x="183" y="1158" type="line"/>
      <point x="183" y="973" type="line"/>
      <point x="782" y="973" type="line"/>
      <point x="745" y="830"/>
      <point x="644" y="759"/>
      <point x="520" y="759" type="curve" smooth="yes"/>
      <point x="346" y="759"/>
      <point x="226" y="757"/>
      <point x="183" y="762" type="curve"/>
      <point x="183" y="564" type="line"/>
      <point x="227" y="559"/>
      <point x="375" y="551"/>
      <point x="576" y="563" type="curve"/>
      <point x="600" y="567" type="line"/>
      <point x="736" y="445"/>
      <point x="856" y="0"/>
      <point x="940" y="0" type="curve" smooth="yes"/>
    </contour>
  </outline>
</glyph>
<glyph name="numero" format="1">
  <advance width="2720"/>
  <unicode hex="2116"/>
  <outline>
    <contour>
      <point x="188" y="0" type="line"/>
      <point x="465" y="0" type="line"/>
      <point x="465" y="788" type="line"/>
      <point x="455" y="1352" type="line"/>
      <point x="347" y="1339" type="line"/>
      <point x="578" y="817" type="line"/>
      <point x="1062" y="0" type="line"/>
      <point x="1358" y="0" type="line"/>
      <point x="1358" y="1522" type="line"/>
      <point x="1083" y="1522" type="line"/>
      <point x="1083" y="658" type="line"/>
      <point x="1092" y="126" type="line"/>
      <point x="1211" y="126" type="line"/>
      <point x="988" y="648" type="line"/>
      <point x="484" y="1522" type="line"/>
      <point x="188" y="1522" type="line"/>
    </contour>
    <contour>
      <point x="2089" y="398" type="curve" smooth="yes"/>
      <point x="2405" y="398"/>
      <point x="2611" y="609"/>
      <point x="2615" y="960" type="curve" smooth="yes"/>
      <point x="2617" y="1271"/>
      <point x="2470" y="1530"/>
      <point x="2108" y="1530" type="curve" smooth="yes"/>
      <point x="1785" y="1530"/>
      <point x="1572" y="1335"/>
      <point x="1567" y="982" type="curve" smooth="yes"/>
      <point x="1563" y="674"/>
      <point x="1682" y="398"/>
    </contour>
    <contour>
      <point x="2093" y="608" type="curve" smooth="yes"/>
      <point x="1945" y="610"/>
      <point x="1871" y="750"/>
      <point x="1871" y="978" type="curve" smooth="yes"/>
      <point x="1871" y="1208"/>
      <point x="1949" y="1318"/>
      <point x="2101" y="1317" type="curve" smooth="yes"/>
      <point x="2245" y="1316"/>
      <point x="2311" y="1180"/>
      <point x="2311" y="961" type="curve" smooth="yes"/>
      <point x="2311" y="721"/>
      <point x="2243" y="607"/>
    </contour>
    <contour>
      <point x="1647" y="0" type="line"/>
      <point x="2554" y="0" type="line"/>
      <point x="2554" y="217" type="line"/>
      <point x="1647" y="217" type="line"/>
    </contour>
  </outline>
</glyph>
<glyph name="product" format="1">
  <advance width="1708"/>
  <unicode hex="220F"/>
  <outline>
    <contour>
      <point x="639" y="-171" type="line"/>
      <point x="639" y="1320" type="line"/>
      <point x="612" y="1291" type="line"/>
      <point x="1086" y="1291" type="line"/>
      <point x="1059" y="1319" type="line"/>
      <point x="1059" y="-171" type="line"/>
      <point x="1377" y="-171" type="line"/>
      <point x="1377" y="1319" type="line"/>
      <point x="1348" y="1291" type="line"/>
      <point x="1604" y="1292" type="line"/>
      <point x="1604" y="1522" type="line"/>
      <point x="104" y="1522" type="line"/>
      <point x="104" y="1292" type="line"/>
      <point x="349" y="1291" type="line"/>
      <point x="321" y="1322" type="line"/>
      <point x="321" y="-171" type="line"/>
    </contour>
  </outline>
</glyph>
<glyph name="summation" format="1">
  <advance width="1463"/>
  <unicode hex="2211"/>
  <outline>
    <contour>
      <point x="178" y="-170" type="line"/>
      <point x="1296" y="-170" type="line"/>
      <point x="1296" y="48" type="line"/>
      <point x="490" y="48" type="line"/>
      <point x="490" y="-93" type="line"/>
      <point x="1010" y="686" type="line"/>
      <point x="465" y="1450" type="line"/>
      <point x="464" y="1293" type="line"/>
      <point x="1255" y="1293" type="line"/>
      <point x="1255" y="1522" type="line"/>
      <point x="182" y="1522" type="line"/>
      <point x="152" y="1442" type="line"/>
      <point x="703" y="680" type="line"/>
      <point x="152" y="-106" type="line"/>
    </contour>
  </outline>
</glyph>
<glyph name="minus" format="1">
  <advance width="1360"/>
  <unicode hex="2212"/>
  <outline>
    <contour>
      <point x="255" y="644" type="line"/>
      <point x="1105" y="644" type="line"/>
      <point x="1105" y="889" type="line"/>
      <point x="255" y="889" type="line"/>
    </contour>
  </outline>
</glyph>
<glyph name="dieresis.cap" format="1">
  <advance width="988"/>
  <outline>
    <contour>
      <point x="224" y="1614" type="curve" smooth="yes"/>
      <point x="330" y="1614"/>
      <point x="410" y="1692"/>
      <point x="410" y="1796" type="curve" smooth="yes"/>
      <point x="410" y="1893"/>
      <point x="353" y="1960"/>
      <point x="242" y="1960" type="curve" smooth="yes"/>
      <point x="138" y="1960"/>
      <point x="55" y="1880"/>
      <point x="55" y="1778" type="curve" smooth="yes"/>
      <point x="55" y="1679"/>
      <point x="122" y="1614"/>
    </contour>
    <contour>
      <point x="747" y="1614" type="curve" smooth="yes"/>
      <point x="854" y="1614"/>
      <point x="933" y="1692"/>
      <point x="933" y="1796" type="curve" smooth="yes"/>
      <point x="933" y="1893"/>
      <point x="877" y="1960"/>
      <point x="766" y="1960" type="curve" smooth="yes"/>
      <point x="662" y="1960"/>
      <point x="579" y="1880"/>
      <point x="579" y="1778" type="curve" smooth="yes"/>
      <point x="579" y="1679"/>
      <point x="646" y="1614"/>
    </contour>
    <contour>
      <point x="494" y="1700" type="move" name="_top"/>
    </contour>
  </outline>
</glyph>
<glyph name="hungarumlaut.cap" format="1">
  <advance width="972"/>
  <outline>
    <contour>
      <point x="209" y="1553" type="line"/>
      <point x="288" y="1588"/>
      <point x="415" y="1729"/>
      <point x="497" y="1848" type="curve"/>
      <point x="267" y="1960" type="line"/>
      <point x="249" y="1909"/>
      <point x="75" y="1694"/>
      <point x="47" y="1668" type="curve"/>
    </contour>
    <contour>
      <point x="721" y="1553" type="line"/>
      <point x="803" y="1588"/>
      <point x="933" y="1729"/>
      <point x="1010" y="1844" type="curve"/>
      <point x="784" y="1957" type="line"/>
      <point x="766" y="1906"/>
      <point x="588" y="1694"/>
      <point x="560" y="1668" type="curve"/>
    </contour>
    <contour>
      <point x="420" y="1701" type="move" name="_top"/>
    </contour>
  </outline>
</glyph>
<glyph name="macron.cap" format="1">
  <advance width="701"/>
  <outline>
    <contour>
      <point x="55" y="1687" type="line"/>
      <point x="646" y="1687" type="line"/>
      <point x="646" y="1893" type="line"/>
      <point x="55" y="1893" type="line"/>
    </contour>
    <contour>
      <point x="347" y="1701" type="move" name="_top"/>
    </contour>
  </outline>
</glyph>
<glyph name="one.numr" format="1">
  <advance width="1066"/>
  <outline>
    <contour>
      <point x="411" y="673" type="line"/>
      <point x="690" y="673" type="line"/>
      <point x="690" y="1679" type="line"/>
      <point x="545" y="1704" type="line"/>
      <point x="498" y="1665"/>
      <point x="296" y="1551"/>
      <point x="175" y="1516" type="curve"/>
      <point x="215" y="1355" type="line"/>
      <point x="288" y="1368"/>
      <point x="344" y="1384"/>
      <point x="411" y="1402" type="curve"/>
    </contour>
  </outline>
</glyph>
